# xmcd
#
# Track frame offsets:
# 150
# 14858
# 28373
# 37705
# 49555
# 63039
# 75330
# 86184
# 97387
# 109913
# 121467
# 140907
# 153021
# 166268
# 178335
# 191813
# 205491
# 219382
# 233199
# 248462
# 261865
#
# Disc length: 3653 seconds
#
# Revision: 1
# Processed by: cddbd v1.5.2PL0 Copyright (c) Steve Scherf et al.
# Submitted via: Axialis_AX_CDPlayer 2.6
#
DISCID=2c0e4315
DTITLE=Tammy Wynette - Anniversary:  Twenty Years Of Hits
DYEAR=1900
DGENRE=
TTITLE0=Alive And Well
TTITLE1=Apartment No. 9
TTITLE2=Your Good Girl's Gonna Go Bad
TTITLE3=I Don't Wanna Play House
TTITLE4=D-I-V-O-R-C-E
TTITLE5=Stand By Your Man
TTITLE6=Singing My Song
TTITLE7=Run, Woman, Run
TTITLE8=We Sure Can Love Each Other
TTITLE9=Good Lovin' (Makes It Right)
TTITLE10=Bedtime Story
TTITLE11='Til I Get It Right
TTITLE12=Kids Say The Darndest Things
TTITLE13=Another Lonely Song
TTITLE14=We're Gonna Hold On
TTITLE15=Woman To Woman
TTITLE16='Til I Can Make It On My Own
TTITLE17=Golden Ring
TTITLE18=You And Me
TTITLE19=One Of A Kind
TTITLE20=Two Story House
EXTD=www.tammywynette.com
EXTT0=
EXTT1=
EXTT2=
EXTT3=
EXTT4=
EXTT5=
EXTT6=
EXTT7=
EXTT8=
EXTT9=
EXTT10=
EXTT11=
EXTT12=
EXTT13=
EXTT14=
EXTT15=
EXTT16=
EXTT17=
EXTT18=
EXTT19=
EXTT20=
PLAYORDER=
